# xmcd
#
# Track frame offsets:
# 150
# 16086
# 29486
# 41230
# 54793
# 70055
# 81908
# 97662
# 116958
# 132449
# 143373
# 158914
# 172572
# 185020
#
# Disc length: 2669 seconds
#
#
# Revision: 0
# Processed by: cddbd v1.5.1PL2 Copyright (c) Steve Scherf et al.
# Submitted via: FreeRIP 2.945 
#
DISCID=ac0a6b0e
DTITLE=Tião Goiano and Mulato - Essencia Divina - Essencia Divina
DYEAR=2005
DGENRE=Sertanejo
TTITLE0=Essencia Divina
TTITLE1=Peixe fora d´água
TTITLE2=Nos Braços da Mineira
TTITLE3=Caboclinho Batuta
TTITLE4=Pagode do Coqueiro
TTITLE5=Coração Palhaço
TTITLE6=Homen de Lata
TTITLE7=Tapete de Asfalto
TTITLE8=Palavra do Homen
TTITLE9=Rabo de Saia
TTITLE10=Veneno da Paixão
TTITLE11=Vida Boiadeira
TTITLE12=Vida Boa
TTITLE13=Gogó do Barra Mansa
EXTD=José Ulisses Empresário\ncontato para shows 9603-8378
EXTT0=Santo Pavanelli - Zé Matão
EXTT1=Isaias - Anastacio
EXTT2=Rivaldo José - Mulato
EXTT3=Adão Nildo - Ditinho Leme-Anastácio
EXTT4=Zé Matão-José Gomes
EXTT5=Jose Ulisses-Adivaldo Dias-Rodrigo Matos
EXTT6=Adivaldo Dias-José Ulisses-Vanderil
EXTT7=Rivaldo Jose-Mulato
EXTT8=Ribas-Tião Goiano
EXTT9=Rivaldo José - Mulato-Tião Goiano
EXTT10=Isaias-João Miranda
EXTT11=Adivaldo Dias-José Ulisses-Vanderil
EXTT12=Zé Matão-Ten. Mariano
EXTT13=Rivaldo José-Zé Matão
PLAYORDER=
